#!OML:ASF E:\motion texture\Top Level 1\Subject 1\Session 1\male.ASF
:FULLY-SPECIFIED
:DEGREES
662
root -49.2627 16.806 3.19231 126.277 -81.769 -135.22
lowerback 2.81255 -0.654527 2.71686
upperback 4.13769 -1.04117 2.85917
thorax 2.68813 -0.54814 1.42096
lowerneck -11.5023 -0.220759 -4.97637
upperneck 41.2219 -2.13617 1.7878
head 16.988 -2.22224 1.09508
rclavicle -1.38155e-014 -2.18663e-015
rhumerus -32.7555 -26.1128 -66.6689
rradius 20.4895
rwrist 23.8297
rhand -10.5116 -25.3957
rfingers 7.12502
rthumb 15.491 -54.7951
lclavicle -1.38155e-014 -2.18663e-015
lhumerus -22.586 11.1754 75.1799
lradius 48.5604
lwrist 0.157729
lhand -14.1908 17.1021
lfingers 7.12502
lthumb 11.9451 46.7413
rfemur -28.6215 -3.58772 23.6185
rtibia 42.5772
rfoot -6.12405 -8.31522
rtoes 13.6527
lfemur -21.374 3.87381 -15.8773
ltibia 53.8967
lfoot -12.1678 -4.82241
ltoes -9.2105
663
root -49.2891 16.8022 3.18939 127.816 -81.6545 -136.768
lowerback 2.8354 -0.583591 2.57974
upperback 4.16397 -0.952665 2.95351
thorax 2.70572 -0.510539 1.59472
lowerneck -11.695 -0.139386 -4.94831
upperneck 41.297 -2.00074 1.78278
head 17.0719 -2.16102 1.11043
rclavicle 1.99887e-014 -3.598e-014
rhumerus -32.4195 -27.348 -66.132
rradius 20.0392
rwrist 25.0668
rhand -10.1184 -25.5713
rfingers 7.12502
rthumb 15.8696 -54.941
lclavicle 1.99887e-014 -3.598e-014
lhumerus -22.586 11.1754 75.1799
lradius 48.5604
lwrist 0.157729
lhand -14.1908 17.1021
lfingers 7.12502
lthumb 11.9451 46.7413
rfemur -28.6215 -3.58772 23.6185
rtibia 42.5772
rfoot -6.12405 -8.31522
rtoes 13.6527
lfemur -21.374 3.87381 -15.8773
ltibia 53.8967
lfoot -12.1678 -4.82241
ltoes -9.2105
664
root -49.333 16.8067 3.18845 130.599 -81.793 -139.644
lowerback 2.8144 -0.586642 2.17378
upperback 4.12713 -0.955137 2.9231
thorax 2.68387 -0.52128 1.79044
lowerneck -11.564 0.00161956 -4.83683
upperneck 41.2781 -1.78818 1.68163
head 17.0131 -2.07395 1.08113
rclavicle -6.61891e-015 -7.7526e-015
rhumerus -32.3201 -28.1737 -65.6984
rradius 19.6791
rwrist 26.1612
rhand -10.2429 -25.4974
rfingers 7.12502
rthumb 15.7497 -54.8766
lclavicle -6.61891e-015 -7.7526e-015
lhumerus -22.586 11.1754 75.1799
lradius 48.5604
lwrist 0.157729
lhand -14.1908 17.1021
lfingers 7.12502
lthumb 11.9451 46.7413
rfemur -28.6215 -3.58772 23.6185
rtibia 42.5772
rfoot -6.12405 -8.31522
rtoes 13.6527
lfemur -21.374 3.87381 -15.8773
ltibia 53.8967
lfoot -12.1678 -4.82241
ltoes -9.2105
665
root -49.3577 16.8129 3.19156 132.861 -81.9616 -141.913
lowerback 2.78644 -0.590983 1.79286
upperback 4.07272 -0.958654 2.90516
thorax 2.648 -0.531745 1.9852
lowerneck -11.545 0.109715 -4.77159
upperneck 41.3954 -1.65292 1.65532
head 17.0658 -2.02021 1.07926
rclavicle -2.03521e-015 3.18055e-015
rhumerus -32.2948 -29.5828 -65.0518
rradius 19.3712
rwrist 27.6376
rhand -10.5826 -25.0089
rfingers 7.12502
rthumb 15.4226 -54.4135
lclavicle -2.03521e-015 3.18055e-015
lhumerus -22.586 11.1754 75.1799
lradius 48.5604
lwrist 0.157729
lhand -14.1908 17.1021
lfingers 7.12502
lthumb 11.9451 46.7413
rfemur -28.6215 -3.58772 23.6185
rtibia 42.5772
rfoot -6.12405 -8.31522
rtoes 13.6527
lfemur -21.374 3.87381 -15.8773
ltibia 53.8967
lfoot -12.1678 -4.82241
ltoes -9.2105
666
root -49.3834 16.8266 3.19333 133.988 -81.8915 -143.06
lowerback 2.80119 -0.617313 1.72688
upperback 4.01375 -0.990638 2.92345
thorax 2.58069 -0.549354 2.04159
lowerneck -11.3424 0.225702 -4.65796
upperneck 41.3121 -1.52026 1.65154
head 16.9578 -1.95039 1.08015
rclavicle -1.55984e-014 4.33351e-014
rhumerus -32.1915 -30.4227 -64.8161
rradius 19.3451
rwrist 28.0316
rhand -10.6879 -25.5112
rfingers 7.12502
rthumb 15.3212 -54.9237
lclavicle -1.55984e-014 4.33351e-014
lhumerus -22.586 11.1754 75.1799
lradius 48.5604
lwrist 0.157729
lhand -14.1908 17.1021
lfingers 7.12502
lthumb 11.9451 46.7413
rfemur -28.6215 -3.58772 23.6185
rtibia 42.5772
rfoot -6.12405 -8.31522
rtoes 13.6527
lfemur -21.374 3.87381 -15.8773
ltibia 53.8967
lfoot -12.1678 -4.82241
ltoes -9.2105
667
root -49.4022 16.8444 3.19857 134.59 -81.765 -143.628
lowerback 2.73556 -0.669792 1.76753
upperback 4.01112 -1.06543 2.97717
thorax 2.6172 -0.587147 2.07371
lowerneck -11.424 0.362445 -4.62942
upperneck 41.3654 -1.34303 1.71244
head 16.9991 -1.86741 1.13211
rclavicle 1.84885e-015 1.74931e-014
rhumerus -31.9569 -31.1569 -64.7523
rradius 19.4719
rwrist 28.2011
rhand -10.8389 -26.0859
rfingers 7.12502
rthumb 15.1757 -55.5094
lclavicle 1.84885e-015 1.74931e-014
lhumerus -22.586 11.1754 75.1799
lradius 48.5604
lwrist 0.157729
lhand -14.1908 17.1021
lfingers 7.12502
lthumb 11.9451 46.7413
rfemur -28.6215 -3.58772 23.6185
rtibia 42.5772
rfoot -6.12405 -8.31522
rtoes 13.6527
lfemur -21.374 3.87381 -15.8773
ltibia 53.8967
lfoot -12.1678 -4.82241
ltoes -9.2105
668
root -49.4086 16.8664 3.2049 135.02 -81.6264 -143.93
lowerback 2.71238 -0.709185 1.81095
upperback 3.94284 -1.11739 3.04798
thorax 2.5617 -0.613136 2.12262
lowerneck -11.4802 0.45926 -4.53276
upperneck 41.3999 -1.20638 1.6714
head 17.0246 -1.80364 1.11889
rclavicle 3.71246e-015 -1.90833e-014
rhumerus -31.7812 -31.8427 -64.7268
rradius 19.6916
rwrist 28.0627
rhand -11.3119 -26.2915
rfingers 7.12502
rthumb 14.72 -55.7489
lclavicle 3.71246e-015 -1.90833e-014
lhumerus -22.586 11.1754 75.1799
lradius 48.5604
lwrist 0.157729
lhand -14.1908 17.1021
lfingers 7.12502
lthumb 11.9451 46.7413
rfemur -28.6215 -3.58772 23.6185
rtibia 42.5772
rfoot -6.12405 -8.31522
rtoes 13.6527
lfemur -21.374 3.87381 -15.8773
ltibia 53.8967
lfoot -12.1678 -4.82241
ltoes -9.2105
669
root -49.4222 16.8924 3.21731 136.005 -81.5809 -144.894
lowerback 2.59327 -0.767111 1.79136
upperback 3.71146 -1.18187 3.03805
thorax 2.39063 -0.642042 2.12294
lowerneck -10.5803 0.605931 -4.60308
upperneck 41.301 -1.17504 1.93127
head 16.7375 -1.78861 1.25092
rclavicle 5.77407e-015 8.34896e-015
rhumerus -32.185 -31.8057 -64.7515
rradius 20.2494
rwrist 27.2624
rhand -10.9854 -27.4448
rfingers 7.12502
rthumb 15.0345 -56.8789
lclavicle 5.77407e-015 8.34896e-015
lhumerus -22.586 11.1754 75.1799
lradius 48.5604
lwrist 0.157729
lhand -14.1908 17.1021
lfingers 7.12502
lthumb 11.9451 46.7413
rfemur -28.6215 -3.58772 23.6185
rtibia 42.5772
rfoot -6.12405 -8.31522
rtoes 13.6527
lfemur -21.374 3.87381 -15.8773
ltibia 53.8967
lfoot -12.1678 -4.82241
ltoes -9.2105
670
root -49.4258 16.9229 3.22909 136.193 -81.2762 -144.923
lowerback 2.57261 -0.743369 2.07003
upperback 3.88733 -1.16596 3.09708
thorax 2.58057 -0.631265 2.02642
lowerneck -11.6299 0.591266 -4.29895
upperneck 41.481 -1.08895 1.70316
head 17.1005 -1.71814 1.11015
rclavicle -2.4685e-015 -9.54166e-015
rhumerus -31.4113 -32.1759 -65.3898
rradius 20.7001
rwrist 26.3109
rhand -11.6426 -28.1241
rfingers 7.12502
rthumb 14.4013 -57.6045
lclavicle -2.4685e-015 -9.54166e-015
lhumerus -22.586 11.1754 75.1799
lradius 48.5604
lwrist 0.157729
lhand -14.1908 17.1021
lfingers 7.12502
lthumb 11.9451 46.7413
rfemur -28.6215 -3.58772 23.6185
rtibia 42.5772
rfoot -6.12405 -8.31522
rtoes 13.6527
lfemur -21.374 3.87381 -15.8773
ltibia 53.8967
lfoot -12.1678 -4.82241
ltoes -9.2105
671
root -49.4248 16.9565 3.24366 137.617 -81.2045 -146.238
lowerback 2.56482 -0.769972 1.99479
upperback 3.7566 -1.19188 3.08101
thorax 2.451 -0.644149 2.05259
lowerneck -11.4562 0.69391 -4.20586
upperneck 41.5133 -1.03596 1.80948
head 17.0702 -1.67624 1.14909
rclavicle 1.7806e-014 1.90833e-014
rhumerus -31.2723 -31.7753 -65.9273
rradius 21.2589
rwrist 24.7883
rhand -12.8626 -28.8173
rfingers 7.12502
rthumb 13.2257 -58.3777
lclavicle 1.7806e-014 1.90833e-014
lhumerus -22.586 11.1754 75.1799
lradius 48.5604
lwrist 0.157729
lhand -14.1908 17.1021
lfingers 7.12502
lthumb 11.9451 46.7413
rfemur -28.6215 -3.58772 23.6185
rtibia 42.5772
rfoot -6.12405 -8.31522
rtoes 13.6527
lfemur -21.374 3.87381 -15.8773
ltibia 53.8967
lfoot -12.1678 -4.82241
ltoes -9.2105
